<?xml version="1.0" encoding="UTF-8" standalone="no"?>
<svg width="60px" height="39px" viewBox="0 0 60 39" version="1.1" xmlns="http://www.w3.org/2000/svg" xmlns:xlink="http://www.w3.org/1999/xlink">
    <!-- Generator: Sketch 42 (36781) - http://www.bohemiancoding.com/sketch -->
    <title>Slice 1</title>
    <desc>Created with Sketch.</desc>
    <defs></defs>
    <g id="Page-1" stroke="none" stroke-width="1" fill="none" fill-rule="evenodd">
        <g id="submit-artist" fill-rule="nonzero" fill="#FFFFFF">
            <g>
                <polygon id="Path-2" points="3 2 0 39 60 36 55.5510204 0"></polygon>
            </g>
        </g>
        <path d="M23.2676282,8.99 L23.2676282,12.5012179 L28.2035256,12.5012179 C29.8740433,12.5012179 31.2211538,13.8483285 31.2211538,15.5188462 C31.2211538,17.1775168 29.8740433,18.5252564 28.2035256,18.5252564 L24.8605769,18.5252564 L24.8605769,23.6294231 L28.3717949,23.6294231 L28.3717949,22.0448805 C31.8964145,21.9554062 34.7323718,19.0648545 34.7323718,15.5188462 C34.7323718,11.9621283 31.8961461,9.08192729 28.3717949,8.99281179 L28.3717949,8.99 L23.2676282,8.99 Z M26.7788462,24.8858333 C25.364846,24.8858333 24.2211538,26.0295255 24.2211538,27.4435256 C24.2211538,28.8470825 25.364846,29.99 26.7788462,29.99 C28.1824062,29.99 29.3253205,28.8470825 29.3253205,27.4435256 C29.3253205,26.0295255 28.1824062,24.8858333 26.7788462,24.8858333 Z" id="?" fill="#000000"></path>
    </g>
</svg>