<svg width="54" height="39" viewBox="0 0 54 39" xmlns="http://www.w3.org/2000/svg"><title>filter-artist</title><g fill="none" fill-rule="evenodd"><path fill="#FFF" fill-rule="nonzero" d="M0 0l3 39 51-1-3-34z"/><rect fill="#18252D" fill-rule="nonzero" x="10" y="10" width="35" height="3" rx="1.5"/><path d="M24.5 15a3.5 3.5 0 1 0 0-7 3.5 3.5 0 0 0 0 7z" fill="#18252D"/><rect fill="#18252D" fill-rule="nonzero" x="10" y="19" width="35" height="3" rx="1.5"/><path d="M36.5 24a3.5 3.5 0 1 0 0-7 3.5 3.5 0 0 0 0 7z" fill="#18252D"/><rect fill="#18252D" fill-rule="nonzero" x="10" y="28" width="35" height="3" rx="1.5"/><path d="M18.5 33a3.5 3.5 0 1 0 0-7 3.5 3.5 0 0 0 0 7z" fill="#18252D"/></g></svg>