<?xml version="1.0" encoding="UTF-8" standalone="no"?>
<svg width="50px" height="40px" viewBox="0 0 50 40" version="1.1" xmlns="http://www.w3.org/2000/svg" xmlns:xlink="http://www.w3.org/1999/xlink">
    <!-- Generator: Sketch 42 (36781) - http://www.bohemiancoding.com/sketch -->
    <title>Slice 1</title>
    <desc>Created with Sketch.</desc>
    <defs></defs>
    <g id="Page-1" stroke="none" stroke-width="1" fill="none" fill-rule="evenodd">
        <polygon id="Path-2" fill="#FFFFFF" points="0 2 4.08163265 36 47.9591837 40 50 0"></polygon>
        <path d="M39,31 L40,31 L40,32 L10,32 L10,31 L11,31 L11,26 L14,26 L14,16 L20,16 L20,21 L21,21 L21,11 L22,11 L22,9 L24,9 L24,8 L25,8 L25,5 L26,5 L26,8 L27,8 L27,9 L29,9 L29,11 L30,11 L30,22 L31,22 L31,18 L37,18 L37,28 L39,28 L39,31 Z M33,21 L33,22 L35,22 L35,21 L33,21 Z M33,24 L33,25 L35,25 L35,24 L33,24 Z M33,27 L33,28 L35,28 L35,27 L33,27 Z M27,18 L24,18 L24,19 L27,19 L27,18 Z M24,15 L27,15 L27,14 L24,14 L24,15 Z M27,22 L24,22 L24,23 L27,23 L27,22 Z M27,26 L24,26 L24,27 L27,27 L27,26 Z M16,19 L16,20 L18,20 L18,19 L16,19 Z M16,23 L16,24 L18,24 L18,23 L16,23 Z M16,27 L16,28 L18,28 L18,27 L16,27 Z" id="Shape" fill="#000000" fill-rule="nonzero"></path>
    </g>
</svg>