<?xml version="1.0" encoding="UTF-8" standalone="no"?>
<svg width="350px" height="66px" viewBox="0 0 350 66" version="1.1" xmlns="http://www.w3.org/2000/svg" xmlns:xlink="http://www.w3.org/1999/xlink">
    <!-- Generator: Sketch 41.2 (35397) - http://www.bohemiancoding.com/sketch -->
    <title>rapworldmap</title>
    <desc>Created with Sketch.</desc>
    <defs>
        <polygon id="path-1" points="350 2.75 0 0 0 66 325 59"></polygon>
        <mask id="mask-2" maskContentUnits="userSpaceOnUse" maskUnits="objectBoundingBox" x="0" y="0" width="350" height="66" fill="white">
            <use xlink:href="#path-1"></use>
        </mask>
    </defs>
    <g id="Page-1" stroke="none" stroke-width="1" fill="none" fill-rule="evenodd">
        <use id="Path-3" stroke="#FFFFFF" mask="url(#mask-2)" stroke-width="2" fill="#FFFFFF" xlink:href="#path-1"></use>
        <g id="Logo" transform="translate(17.000000, 21.000000)" fill="#18252D">
            <path d="M0.112,0.24 L0.112,21 L3.868,21 L3.868,14.208 L6.98499219,14.208 L10.312,20.862 L10.312,21 L14.08,21 L14.08,20.64 L14.0140156,20.64 L10.6540156,13.9470078 L10.5699844,13.7849922 L10.372,13.392 C12.5774727,12.2162881 14.08,9.89382422 14.08,7.224 C14.08,3.41980859 11.0453125,0.342080078 7.276,0.246015625 L7.276,0.24 L0.112,0.24 Z M3.868,3.996 L7.096,3.996 C8.87030371,3.996 10.312,5.43702441 10.312,7.224 C10.312,8.99830371 8.87030371,10.44 7.096,10.44 L3.868,10.44 L3.868,3.996 Z M33.1329922,6.13401562 L35.1550078,12.1939844 L31.1139844,12.1939844 L33.1329922,6.13401562 Z M31.3180156,0.230015625 L31.3030078,0.278015625 L31.252,0.278015625 L31.252,0.428 L24.496,20.69 L24.448,20.69 L24.448,20.831 L24.4,20.984 L24.448,20.999 L24.448,21.05 L24.5980161,21.05 L24.7420161,21.098 L24.76,21.05 L28.0060161,21.05 L28.1500156,21.098 L28.1649922,21.05 L28.216,21.05 L28.216,20.888 L29.8630078,15.9500161 L36.4060156,15.9500161 L38.056,20.897 L38.056,21.05 L38.1070078,21.05 L38.1219844,21.098 L38.2659844,21.05 L41.5030078,21.05 L41.5180156,21.098 L41.6649922,21.05 L41.812,21.05 L41.812,21.002 L41.86,20.987 L41.812,20.84 L41.812,20.69 L41.7609922,20.69 L35.008,0.419007812 L35.008,0.278015625 L34.96,0.278015625 L34.9420156,0.230015625 L34.7980156,0.278015625 L31.4620156,0.278015625 L31.3180156,0.230015625 Z M52.56,0.24 L52.56,21 L56.328,21 L56.328,14.208 L59.724,14.208 L59.724,14.2019839 C63.4942402,14.1061753 66.528,11.0171196 66.528,7.22399951 C66.528,3.41932764 63.4940156,0.341343262 59.724,0.246015137 L59.724,0.239999512 L52.74,0.239999512 L52.56,0.24 Z M56.328,3.99599951 L59.544,3.99599951 C61.3309756,3.99599951 62.772,5.43702393 62.772,7.22399951 C62.772,8.99830322 61.3309756,10.4399995 59.544,10.4399995 L56.328,10.4399995 L56.328,3.99599951 Z M83.6860161,0.144 L83.5420161,0.192 L83.392,0.192 L83.392,0.243007812 L83.344,0.257984375 L83.392,0.396 L83.392,0.552 L83.4460161,0.552 L90.196,20.802 L90.196,20.952 L90.2470078,20.952 L90.2620156,21 L90.4060156,20.952 L93.7539844,20.952 L93.8979844,21 L93.9129922,20.952 L93.964,20.952 L93.964,20.802 L95.476,16.2419839 L97,20.811 L97,20.952 L97.048,20.952 L97.0659844,21 L97.2099844,20.952 L100.558016,20.952 L100.702016,21 L100.716992,20.952 L100.768,20.952 L100.768,20.793 L107.520992,0.552 L107.572,0.552 L107.572,0.401984375 L107.62,0.257984375 L107.572,0.243007812 L107.572,0.192 L107.422016,0.192 L107.278016,0.144 L107.263008,0.192 L104.014016,0.192 L103.870016,0.144 L103.855008,0.192 L103.804,0.192 L103.804,0.342015625 L98.884,15.1020156 L97.372,10.5719995 L100.713984,0.551999512 L100.768,0.551999512 L100.768,0.395999512 L100.816,0.257983887 L100.768,0.243007324 L100.768,0.191999512 L100.617984,0.191999512 L100.473984,0.143999512 L100.459008,0.191999512 L97.2099844,0.191999512 L97.0659844,0.143999512 L97.048,0.191999512 L97,0.191999512 L97,0.332991699 L95.476,4.90201514 L93.964,0.342015137 L93.964,0.191999512 L93.9129922,0.191999512 L93.8979844,0.143999512 L93.7539844,0.191999512 L90.5049922,0.191999512 L90.4899844,0.143999512 L90.3459844,0.191999512 L90.196,0.191999512 L90.196,0.243007324 L90.148,0.257983887 L90.196,0.401983887 L90.196,0.551999512 L90.2470078,0.551999512 L93.5950078,10.5719995 L92.08,15.0929917 L87.16,0.332991699 L87.16,0.191999512 L87.112,0.191999512 L87.0940156,0.143999512 L86.9500156,0.191999512 L83.7009922,0.191999512 L83.6860161,0.144 Z M128.456,3.996 C132.114688,3.996 135.08,6.9614082 135.08,10.62 C135.08,14.278688 132.114688,17.244 128.456,17.244 C124.797408,17.244 121.832,14.278688 121.832,10.62 C121.832,6.9614082 124.797408,3.996 128.456,3.996 Z M128.456,0.24 C122.719072,0.24 118.064,4.88278418 118.064,10.62 C118.064,16.357312 122.719072,21 128.456,21 C134.193023,21 138.836,16.3570239 138.836,10.62 C138.836,4.88297559 134.193023,0.24 128.456,0.24 Z M150.384,0.24 L150.384,21 L154.14,21 L154.14,14.208 L157.256992,14.208 L160.584,20.862 L160.584,21 L164.352,21 L164.352,20.64 L164.286016,20.64 L160.926016,13.9470078 L160.841984,13.7849922 L160.644,13.392 C162.849473,12.2162881 164.352,9.89382422 164.352,7.224 C164.352,3.41980859 161.317313,0.342080078 157.548,0.246015625 L157.548,0.24 L150.384,0.24 Z M154.14,3.996 L157.368,3.996 C159.142304,3.996 160.584,5.43702441 160.584,7.224 C160.584,8.99830371 159.142304,10.44 157.368,10.44 L154.14,10.44 L154.14,3.996 Z M176.304,0.228 L176.304,21 L188.58,21 L188.58,17.244 L180.072,17.244 L180.072,0.228 L176.304,0.228 Z M203.24,4.00198437 C206.814784,4.09808008 209.684,7.02204785 209.684,10.62 C209.684,14.2179521 206.814784,17.1447998 203.24,17.2409922 L203.24,4.00198437 Z M199.472,0.228 L199.472,21 L203.24,21 L203.24,20.997 C208.882528,20.9003437 213.44,16.2851201 213.44,10.62 C213.44,4.94316797 208.882528,0.327648437 203.24,0.231007812 L203.24,0.228 L199.472,0.228 Z M231.408,0.228 L231.408,21 L235.164,21 L235.164,6.06 L239.904,12.372 L239.904,12.492 L239.993984,12.492 L240.048,12.564 L240.144,12.492 L243.432,12.492 L243.528,12.564 L243.582016,12.492 L243.672,12.492 L243.672,12.372 L248.412,6.06 L248.412,21 L252.18,21 L252.18,0.228 L248.412,0.228 L248.412,0.342015625 L241.788,8.628 L235.164,0.344992187 L235.164,0.228 L231.408,0.228 Z M271.532992,6.13401562 L273.555008,12.1939844 L269.513984,12.1939844 L271.532992,6.13401562 Z M269.718016,0.230015625 L269.703008,0.278015625 L269.652,0.278015625 L269.652,0.428 L262.896,20.69 L262.848,20.69 L262.848,20.831 L262.8,20.984 L262.848,20.999 L262.848,21.05 L262.998016,21.05 L263.142016,21.098 L263.16,21.05 L266.406016,21.05 L266.550016,21.098 L266.564992,21.05 L266.616,21.05 L266.616,20.888 L268.263008,15.9500161 L274.806016,15.9500161 L276.456,20.897 L276.456,21.05 L276.507008,21.05 L276.521984,21.098 L276.665984,21.05 L279.903008,21.05 L279.918016,21.098 L280.064992,21.05 L280.212,21.05 L280.212,21.002 L280.26,20.987 L280.212,20.84 L280.212,20.69 L280.160992,20.69 L273.408,0.419007812 L273.408,0.278015625 L273.36,0.278015625 L273.342016,0.230015625 L273.198016,0.278015625 L269.862016,0.278015625 L269.718016,0.230015625 Z M290.96,0.24 L290.96,21 L294.728,21 L294.728,14.208 L298.124,14.208 L298.124,14.2019839 C301.89424,14.1061753 304.928,11.0171196 304.928,7.22399951 C304.928,3.41932764 301.894016,0.341343262 298.124,0.246015137 L298.124,0.239999512 L291.14,0.239999512 L290.96,0.24 Z M294.728,3.99599951 L297.944,3.99599951 C299.730976,3.99599951 301.172,5.43702393 301.172,7.22399951 C301.172,8.99830322 299.730976,10.4399995 297.944,10.4399995 L294.728,10.4399995 L294.728,3.99599951 Z" id="RAP-WORLD-MAP"></path>
        </g>
    </g>
</svg>