<svg width="350" height="66" viewBox="0 0 350 66" xmlns="http://www.w3.org/2000/svg" xmlns:xlink="http://www.w3.org/1999/xlink"><title>rapworldmap</title><defs><path id="a" d="M350 2.75L0 0v66l325-7z"/><mask id="b" x="0" y="0" width="350" height="66" fill="#fff"><use xlink:href="#a"/></mask></defs><g fill="none" fill-rule="evenodd"><use stroke="#FFF" mask="url(#b)" stroke-width="2" fill="#FFF" xlink:href="#a"/><path d="M17.112 21.24V42h3.756v-6.792h3.117l3.327 6.654V42h3.768v-.36h-.066l-3.36-6.693-.084-.162-.198-.393a6.988 6.988 0 0 0 3.708-6.168 6.98 6.98 0 0 0-6.804-6.978v-.006h-7.164zm3.756 3.756h3.228a3.22 3.22 0 0 1 3.216 3.228 3.218 3.218 0 0 1-3.216 3.216h-3.228v-6.444zm29.265 2.138l2.022 6.06h-4.041l2.019-6.06zm-1.815-5.904l-.015.048h-.051v.15L41.496 41.69h-.048v.141l-.048.153.048.015v.051h.15l.144.048.018-.048h3.246l.144.048.015-.048h.051v-.162l1.647-4.938h6.543l1.65 4.947v.153h.051l.015.048.144-.048h3.237l.015.048.147-.048h.147v-.048l.048-.015-.048-.147v-.15h-.051l-6.753-20.271v-.141h-.048l-.018-.048-.144.048h-3.336l-.144-.048zm21.242.01V42h3.768v-6.792h3.396v-.006c3.77-.096 6.804-3.185 6.804-6.978a6.978 6.978 0 0 0-6.804-6.978v-.006H69.56zm3.768 3.756h3.216a3.223 3.223 0 1 1 0 6.444h-3.216v-6.444zm27.358-3.852l-.144.048h-.15v.051l-.048.015.048.138v.156h.054l6.75 20.25v.15h.051l.015.048.144-.048h3.348l.144.048.015-.048h.051v-.15l1.512-4.56L114 41.811v.141h.048l.018.048.144-.048h3.348l.144.048.015-.048h.051v-.159l6.753-20.241h.051v-.15l.048-.144-.048-.015v-.051h-.15l-.144-.048-.015.048h-3.249l-.144-.048-.015.048h-.051v.15l-4.92 14.76-1.512-4.53 3.342-10.02h.054v-.156l.048-.138-.048-.015v-.051h-.15l-.144-.048-.015.048h-3.249l-.144-.048-.018.048H114v.141l-1.524 4.569-1.512-4.56v-.15h-.051l-.015-.048-.144.048h-3.249l-.015-.048-.144.048h-.15v.051l-.048.015.048.144v.15h.051l3.348 10.02-1.515 4.521-4.92-14.76v-.141h-.048l-.018-.048-.144.048h-3.249l-.015-.048zm44.77 3.852a6.624 6.624 0 1 1 0 13.248 6.624 6.624 0 1 1 0-13.248zm0-3.756c-5.737 0-10.392 4.643-10.392 10.38 0 5.737 4.655 10.38 10.392 10.38 5.737 0 10.38-4.643 10.38-10.38 0-5.737-4.643-10.38-10.38-10.38zm21.928 0V42h3.756v-6.792h3.117l3.327 6.654V42h3.768v-.36h-.066l-3.36-6.693-.084-.162-.198-.393a6.988 6.988 0 0 0 3.708-6.168 6.98 6.98 0 0 0-6.804-6.978v-.006h-7.164zm3.756 3.756h3.228a3.22 3.22 0 0 1 3.216 3.228 3.218 3.218 0 0 1-3.216 3.216h-3.228v-6.444zm22.164-3.768V42h12.276v-3.756h-8.508V21.228h-3.768zm26.936 3.774a6.622 6.622 0 0 1 0 13.239V25.002zm-3.768-3.774V42h3.768v-.003c5.643-.097 10.2-4.712 10.2-10.377 0-5.677-4.557-10.292-10.2-10.389v-.003h-3.768zm31.936 0V42h3.756V27.06l4.74 6.312v.12h.09l.054.072.096-.072h3.288l.096.072.054-.072h.09v-.12l4.74-6.312V42h3.768V21.228h-3.768v.114l-6.624 8.286-6.624-8.283v-.117h-3.756zm40.125 5.906l2.022 6.06h-4.041l2.019-6.06zm-1.815-5.904l-.015.048h-.051v.15l-6.756 20.262h-.048v.141l-.048.153.048.015v.051h.15l.144.048.018-.048h3.246l.144.048.015-.048h.051v-.162l1.647-4.938h6.543l1.65 4.947v.153h.051l.015.048.144-.048h3.237l.015.048.147-.048h.147v-.048l.048-.015-.048-.147v-.15h-.051l-6.753-20.271v-.141h-.048l-.018-.048-.144.048h-3.336l-.144-.048zm21.242.01V42h3.768v-6.792h3.396v-.006c3.77-.096 6.804-3.185 6.804-6.978a6.978 6.978 0 0 0-6.804-6.978v-.006h-7.164zm3.768 3.756h3.216a3.223 3.223 0 1 1 0 6.444h-3.216v-6.444z" fill="#18252D"/></g></svg>