<?xml version="1.0" encoding="UTF-8" standalone="no"?>
<svg width="58px" height="38px" viewBox="0 0 58 38" version="1.1" xmlns="http://www.w3.org/2000/svg" xmlns:xlink="http://www.w3.org/1999/xlink">
    <!-- Generator: Sketch 43.1 (39012) - http://www.bohemiancoding.com/sketch -->
    <title>Slice 1</title>
    <desc>Created with Sketch.</desc>
    <defs></defs>
    <g id="Page-1" stroke="none" stroke-width="1" fill="none" fill-rule="evenodd">
        <g id="search-artist" fill-rule="nonzero">
            <polygon id="Path-2" fill="#FFFFFF" points="0 1 2 36 55 38 58 0"></polygon>
            <g id="Search" transform="translate(15.000000, 5.000000)" fill="#18252D">
                <path d="M10.3694102,1 C4.66623454,1 1.77635684e-15,5.65543307 1.77635684e-15,11.3586087 C1.77635684e-15,17.0617844 4.66623454,21.7280192 10.3694102,21.7280192 C12.5621086,21.7280192 14.5927848,21.0259236 16.2670125,19.8593651 L21.8729748,25.454526 C22.5858719,26.1782245 23.7524304,26.1782245 24.4653274,25.454526 C25.1782242,24.7416289 25.1782242,23.5858719 24.4653274,22.8729748 L18.8593648,17.2670125 C20.036725,15.5819833 20.7280192,13.5513072 20.7280192,11.3586087 C20.7280192,5.65543307 16.0617844,1 10.3694102,1 L10.3694102,1 Z M10.3694102,4.6508966 C14.0851155,4.6508966 17.0663211,7.63210195 17.0663211,11.3586087 C17.0663211,15.0851158 14.0851155,18.0663211 10.3694102,18.0663211 C6.64290342,18.0663211 3.66169807,15.0851158 3.66169807,11.3586087 C3.66169807,7.63210195 6.64290342,4.6508966 10.3694102,4.6508966 L10.3694102,4.6508966 Z" id="Shape" transform="translate(12.500000, 13.498650) rotate(-270.000000) translate(-12.500000, -13.498650) "></path>
            </g>
        </g>
    </g>
</svg>