<?xml version="1.0" encoding="UTF-8" standalone="no"?>
<svg width="58px" height="45px" viewBox="0 0 58 45" version="1.1" xmlns="http://www.w3.org/2000/svg" xmlns:xlink="http://www.w3.org/1999/xlink">
    <!-- Generator: Sketch 42 (36781) - http://www.bohemiancoding.com/sketch -->
    <title>Add</title>
    <desc>Created with Sketch.</desc>
    <defs></defs>
    <g id="Page-1" stroke="none" stroke-width="1" fill="none" fill-rule="evenodd">
        <g id="Add">
            <polygon id="Path-2" fill="#FFFFFF" points="1.89795918 0 0 43 58 45 54.5510204 5"></polygon>
            <g id="Group" transform="translate(13.000000, 9.000000)" fill-rule="nonzero" fill="#18252D">
                <polygon id="Shape" points="25.0965314 21 25.0965314 23.6081255 27.5418602 23.6081255 27.5418602 25.07076 25.0965314 25.07076 25.0965314 27.6921232 23.4319502 27.6921232 23.4319502 25.07076 21 25.07076 21 23.6081255 23.4319502 23.6081255 23.4319502 21"></polygon>
                <path d="M24.2876897,16.4387088 C22.7722576,16.4387088 21.362397,16.898745 20.1899125,17.686373 C18.9288118,16.8085293 17.5039153,16.1504664 15.9660891,15.7787264 C18.8693079,14.5793692 20.912598,11.7212583 20.912598,8.38519604 C20.912598,3.96782478 17.3318016,0.387348302 12.9147503,0.387348302 C8.49769891,0.387348302 4.91690252,3.96782478 4.91690252,8.38519604 C4.91690252,11.7439722 6.988665,14.617119 9.92259546,15.8024 C4.42007622,17.1805892 0.342773438,22.1744453 0.342773438,28.1267635 L18.3228949,28.1267635 C19.6630143,29.9729867 21.8368293,31.1765028 24.2880097,31.1765028 C28.3512362,31.1765028 31.6572266,27.8711523 31.6572266,23.8079257 C31.6572266,19.7446991 28.3509163,16.4387088 24.2876897,16.4387088 Z M24.2876897,29.2570193 C21.2827384,29.2570193 18.8385961,26.8125571 18.8385961,23.8079257 C18.8385961,20.8032943 21.2830583,18.3581923 24.2876897,18.3581923 C27.2923212,18.3581923 29.7374232,20.8032943 29.7374232,23.8079257 C29.7374232,26.8125571 27.2923212,29.2570193 24.2876897,29.2570193 Z" id="Shape"></path>
            </g>
        </g>
    </g>
</svg>