<?xml version="1.0" encoding="UTF-8" standalone="no"?>
<svg width="58px" height="45px" viewBox="0 0 58 45" version="1.1" xmlns="http://www.w3.org/2000/svg" xmlns:xlink="http://www.w3.org/1999/xlink">
    <!-- Generator: Sketch 42 (36781) - http://www.bohemiancoding.com/sketch -->
    <title>Slice 1</title>
    <desc>Created with Sketch.</desc>
    <defs></defs>
    <g id="Page-1" stroke="none" stroke-width="1" fill="none" fill-rule="evenodd">
        <g id="submit-artist" fill-rule="nonzero">
            <polygon id="Path-2" fill="#FFFFFF" points="1.89795918 0 0 43 58 45 54.5510204 5"></polygon>
            <g id="Add" transform="translate(19.000000, 13.000000)">
                <path d="M9.99941287,19.9999998 C4.4851474,19.9999998 0,15.5142654 0,10.0005869 C0,4.4869085 4.48573443,0 9.99941287,0 C15.5130915,0 20,4.4869085 20,10.0005869 C20,15.5142654 15.5130915,19.9999998 9.99941287,19.9999998 Z" id="Shape" stroke="#18252D" stroke-width="2"></path>
                <polygon id="Shape" fill="#18252D" points="11.514434 4 11.514434 8.67676776 16 8.67676776 16 11.299495 11.514434 11.299495 11.514434 16 8.46102508 16 8.46102508 11.299495 4 11.299495 4 8.67676776 8.46102508 8.67676776 8.46102508 4"></polygon>
            </g>
        </g>
    </g>
</svg>