<svg width="65" height="56" viewBox="0 0 65 56" xmlns="http://www.w3.org/2000/svg"><title>Atlanta</title><g fill="none" fill-rule="evenodd"><path fill="#FFF" d="M6.96.131L0 55.805l64.996-3.808L56.33 4.333z"/><path d="M19.559 23.134l-2.02 6.06h4.042l-2.022-6.06zm-1.815-5.904l.144.048h3.336l.144-.048.018.048h.048v.141l6.753 20.271h.05v.15l.049.147-.048.015v.048h-.147l-.147.048-.015-.048h-3.237l-.144.048-.015-.048h-.051v-.153l-1.65-4.947h-6.543l-1.647 4.938v.162h-.051l-.015.048-.144-.048h-3.246l-.018.048-.144-.048h-.15v-.051l-.048-.015.048-.153v-.141h.048l6.756-20.262v-.15h.05l.016-.048zm7.929-.026v3.768h5.1v17.004h3.756V20.972h5.112v-3.768H25.673zm16.182.024V38h12.276v-3.756h-8.508V17.228h-3.768z" fill="#18252D"/></g></svg>