<svg width="104" height="52" viewBox="0 0 104 52" xmlns="http://www.w3.org/2000/svg"><title>Bay Area</title><g fill="none" fill-rule="evenodd"><path fill="#FFF" d="M0 2.941l5.882 48.527L98 49l6-49z"/><path d="M61.21 26.2v3.768h10.572V26.2H61.21zm20.239-3.066l-2.019 6.06h4.041l-2.022-6.06zm-1.815-5.904l.144.048h3.336l.144-.048.018.048h.048v.141l6.753 20.271h.051v.15l.048.147-.048.015v.048h-.147l-.147.048-.015-.048h-3.237l-.144.048-.015-.048h-.051v-.153l-1.65-4.947h-6.543l-1.647 4.938v.162h-.051l-.015.048-.144-.048h-3.246l-.018.048-.144-.048h-.15v-.051l-.048-.015.048-.153v-.141h.048l6.756-20.262v-.15h.051l.015-.048zM17.302 17.182h3.768v.006a6.976 6.976 0 0 1 6.747 7.758 6.984 6.984 0 0 1 3.453 6.024c0 3.793-3.035 6.882-6.804 6.978v.006h-7.164V17.182zm3.768 3.774v6.432a3.218 3.218 0 0 0 3.036-3.222 3.215 3.215 0 0 0-3.036-3.21zm5.283 7.551a6.947 6.947 0 0 1-5.283 2.637v3.054h3.216a3.22 3.22 0 0 0 3.216-3.228c0-.988-.446-1.872-1.15-2.463zm14.009-5.373l-2.02 6.06h4.042l-2.022-6.06zm-1.815-5.904l.144.048h3.336l.144-.048.018.048h.048v.141L48.99 37.69h.05v.15l.049.147-.048.015v.048h-.147l-.147.048-.015-.048h-3.237l-.144.048-.015-.048h-.051v-.153l-1.65-4.947h-6.543l-1.647 4.938v.162h-.051l-.015.048-.144-.048h-3.246l-.018.048-.144-.048h-.15v-.051l-.048-.015.048-.153v-.141h.048l6.756-20.262v-.15h.05l.016-.048zm8.544-.002v.36h.07l5.03 10.071V38h3.756V27.665l5.034-10.077h.066v-.36h-3.756v.141l-.369.738-2.847 5.7-3.228-6.444v-.135h-3.756z" fill="#18252D"/></g></svg>