<svg width="140" height="56" viewBox="0 0 140 56" xmlns="http://www.w3.org/2000/svg"><title>Texas</title><g fill="none" fill-rule="evenodd"><path fill="#FFF" d="M0 0l7 54 122 2 11-52z"/><path d="M18.429 19.144v20.772h3.756V31.42h6.444v8.496h3.768V19.144h-3.768v8.508h-6.444v-8.508h-3.756zM35.16 29.2v3.768h10.572V29.2H35.16zm10.418-10.056v3.768h5.1v17.004h3.756V22.912h5.112v-3.768H45.579zm24.436 3.852a6.624 6.624 0 1 0 0 13.248 6.624 6.624 0 1 0 0-13.248zm0-3.756c5.737 0 10.38 4.643 10.38 10.38 0 5.737-4.643 10.38-10.38 10.38-5.737 0-10.392-4.643-10.392-10.38 0-5.737 4.655-10.38 10.392-10.38zm11.73-.096l-.144.048h-.15v.051l-.048.015.048.138v.156h.054l6.75 20.25v.15h.05l.016.048.144-.048h3.348l.144.048.015-.048h.05v-.15l1.513-4.56 1.524 4.569v.141h.048l.018.048.144-.048h3.348l.144.048.015-.048h.05v-.159l6.754-20.241h.05v-.15l.049-.144-.048-.015v-.051h-.15l-.144-.048-.015.048h-3.25l-.143-.048-.015.048h-.051v.15l-4.92 14.76-1.512-4.53 3.342-10.02h.054v-.156l.048-.138-.048-.015v-.051h-.15l-.144-.048-.015.048h-3.25l-.143-.048-.018.048h-.048v.141l-1.524 4.569-1.512-4.56v-.15h-.051l-.015-.048-.144.048h-3.25l-.014-.048-.144.048h-.15v.051l-.048.015.048.144v.15h.05l3.349 10.02-1.515 4.521-4.92-14.76v-.141h-.048l-.018-.048-.144.048h-3.25l-.014-.048zm29.533.012l-.09.072h-3.525V40h3.768V25.06l4.74 6.312v.12h.09l.054.072.096-.072h1.464V40h3.756V19.228h-3.756V27.4l-6.444-8.055v-.117h-.096l-.057-.072z" fill="#18252D"/></g></svg>