<svg width="48" height="49" viewBox="0 0 48 49" xmlns="http://www.w3.org/2000/svg"><title>LA</title><g fill="none" fill-rule="evenodd"><path fill="#FFF" d="M0 2.178l7.579 43.555L44.21 49 48 0z"/><path fill="#18252D" d="M14.755 9.244V31.48H28.2v-4.02h-9.318V9.244z"/><path d="M27.299 20.919l-2.211 6.487h4.426l-2.215-6.487zm-1.988-6.32l.158.051h3.654l.157-.051.02.051h.053v.151l7.396 21.7h.056v.16l.052.158-.052.016v.051h-.161l-.161.052-.017-.052h-3.545l-.158.052-.016-.052h-.056v-.164l-1.807-5.295h-7.166l-1.804 5.286v.173h-.056l-.017.052-.157-.052h-3.555l-.02.052-.158-.052h-.164v-.054l-.053-.016.053-.164V36.5h.052l7.4-21.69v-.16h.056l.016-.052z" fill="#18252D"/></g></svg>