<?xml version="1.0" encoding="UTF-8" standalone="no"?>
<svg width="131px" height="51px" viewBox="0 0 131 51" version="1.1" xmlns="http://www.w3.org/2000/svg" xmlns:xlink="http://www.w3.org/1999/xlink">
    <!-- Generator: Sketch 42 (36781) - http://www.bohemiancoding.com/sketch -->
    <title>London</title>
    <desc>Created with Sketch.</desc>
    <defs></defs>
    <g id="Page-1" stroke="none" stroke-width="1" fill="none" fill-rule="evenodd">
        <g id="London">
            <polygon id="Path-9" fill="#FFFFFF" points="0 51 8.63768116 0 125 0 131 45"></polygon>
            <path d="M14.2800007,15.228 L14.2800007,36 L26.5560007,36 L26.5560007,32.244 L18.0480007,32.244 L18.0480007,15.228 L14.2800007,15.228 Z M37.7800005,18.996 C34.1214087,18.996 31.1560005,21.9614082 31.1560005,25.62 C31.1560005,29.278688 34.1214087,32.244 37.7800005,32.244 C41.438688,32.244 44.4040005,29.278688 44.4040005,25.62 C44.4040005,21.9614082 41.438688,18.996 37.7800005,18.996 Z M37.7800005,15.24 C43.5170239,15.24 48.1600005,19.8829756 48.1600005,25.62 C48.1600005,31.3570239 43.5170239,36 37.7800005,36 C32.0430727,36 27.3880005,31.357312 27.3880005,25.62 C27.3880005,19.8827842 32.0430727,15.24 37.7800005,15.24 Z M54.063008,15.156 L53.9729924,15.228 L50.4480002,15.228 L50.4480002,36 L54.2160002,36 L54.2160002,21.06 L58.9560002,27.372 L58.9560002,27.492 L59.0460159,27.492 L59.1000002,27.564 L59.1960002,27.492 L60.6600002,27.492 L60.6600002,36 L64.4160002,36 L64.4160002,15.228 L60.6600002,15.228 L60.6600002,23.4 L54.2160002,15.3449922 L54.2160002,15.228 L54.1200002,15.228 L54.063008,15.156 Z M71.196,19.0019844 L71.196,32.2409922 C74.7707842,32.1447998 77.64,29.2179521 77.64,25.62 C77.64,22.0220479 74.7707842,19.0980801 71.196,19.0019844 Z M67.428,15.228 L71.196,15.228 L71.196,15.2310078 C76.8385283,15.3276484 81.396,19.943168 81.396,25.62 C81.396,31.2851201 76.8385283,35.9003438 71.196,35.997 L71.196,36 L67.428,36 L67.428,15.228 Z M93.2959998,18.996 C89.637408,18.996 86.6719998,21.9614082 86.6719998,25.62 C86.6719998,29.278688 89.637408,32.244 93.2959998,32.244 C96.9546873,32.244 99.9199998,29.278688 99.9199998,25.62 C99.9199998,21.9614082 96.9546873,18.996 93.2959998,18.996 Z M93.2959998,15.24 C99.0330232,15.24 103.676,19.8829756 103.676,25.62 C103.676,31.3570239 99.0330232,36 93.2959998,36 C87.559072,36 82.9039998,31.357312 82.9039998,25.62 C82.9039998,19.8827842 87.559072,15.24 93.2959998,15.24 Z M109.579007,15.156 L109.488992,15.228 L105.964,15.228 L105.964,36 L109.732,36 L109.732,21.06 L114.472,27.372 L114.472,27.492 L114.562015,27.492 L114.616,27.564 L114.712,27.492 L116.176,27.492 L116.176,36 L119.932,36 L119.932,15.228 L116.176,15.228 L116.176,23.4 L109.732,15.3449922 L109.732,15.228 L109.636,15.228 L109.579007,15.156 Z" fill="#18252D"></path>
        </g>
    </g>
</svg>