<svg width="134" height="48" viewBox="0 0 134 48" xmlns="http://www.w3.org/2000/svg"><title>Miami</title><g fill="none" fill-rule="evenodd"><path fill="#FFF" d="M0 0l8 44 120 4 6-45z"/><path d="M16.374 14.228V35h3.756V20.06l4.74 6.312v.12h.09l.054.072.096-.072h3.288l.096.072.054-.072h.09v-.12l4.74-6.312V35h3.768V14.228h-3.768v.114l-6.624 8.286-6.624-8.283v-.117h-3.756zm30.865 5.906l-2.019 6.06h4.041l-2.022-6.06zm-1.815-5.904l.144.048h3.336l.144-.048.018.048h.048v.141l6.753 20.271h.051v.15l.048.147-.048.015v.048h-.147l-.147.048-.015-.048h-3.237l-.144.048-.015-.048h-.051v-.153l-1.65-4.947h-6.543l-1.647 4.938v.162h-.051l-.015.048-.144-.048h-3.246l-.018.048-.144-.048h-.15v-.051l-.048-.015.048-.153v-.141h.048l6.756-20.262v-.15h.051l.015-.048zm21.394-.014v.003c-5.654.097-10.212 4.712-10.212 10.389 0 5.661 4.552 10.274 10.2 10.377v.003h3.768v-8.616h-3.768v4.854a6.62 6.62 0 0 1-6.432-6.618 6.624 6.624 0 0 1 6.624-6.624h3.576v-3.768H66.818zm6.736-.008v20.76h3.768v-20.76h-3.768zm16.184.02v.003c-5.654.097-10.212 4.712-10.212 10.389 0 5.665 4.558 10.28 10.212 10.377V35h3.756v-3.756h-3.576a6.624 6.624 0 1 1 0-13.248h3.576v-3.768h-3.756zM93.82 23.2v3.768h10.572V23.2H93.82zm24.55-8.972v.003c-5.654.097-10.212 4.712-10.212 10.389 0 5.665 4.558 10.28 10.212 10.377V35h3.756v-3.756h-3.576a6.624 6.624 0 1 1 0-13.248h3.576v-3.768h-3.756z" fill="#18252D"/></g></svg>