<?xml version="1.0" encoding="UTF-8" standalone="no"?>
<svg width="92px" height="47px" viewBox="0 0 92 47" version="1.1" xmlns="http://www.w3.org/2000/svg" xmlns:xlink="http://www.w3.org/1999/xlink">
    <!-- Generator: Sketch 42 (36781) - http://www.bohemiancoding.com/sketch -->
    <title>Memphis</title>
    <desc>Created with Sketch.</desc>
    <defs></defs>
    <g id="Page-1" stroke="none" stroke-width="1" fill="none" fill-rule="evenodd">
        <g id="Memphis">
            <polygon id="Path-11" fill="#FFFFFF" points="3 5 0 47 92 43 85 0"></polygon>
            <path d="M11.4193151,11.982375 L11.4193151,36 L15.7621901,36 L15.7621901,18.725625 L21.2428151,26.023875 L21.2428151,26.162625 L21.3468596,26.162625 L21.4093151,26.245875 L21.5203151,26.162625 L25.3220651,26.162625 L25.4330651,26.245875 L25.4955207,26.162625 L25.5995651,26.162625 L25.5995651,26.023875 L31.0801901,18.725625 L31.0801901,36 L35.4369401,36 L35.4369401,11.982375 L31.0801901,11.982375 L31.0801901,12.1142056 L23.4211901,21.694875 L15.7621901,12.1176472 L15.7621901,11.982375 L11.4193151,11.982375 Z M38.8964384,11.982375 L38.8964384,36 L51.1064384,36 L51.1064384,31.657125 L43.2393134,31.657125 L43.2393134,26.1765 L49.1361884,26.1765 L49.1361884,21.81975 L43.2393134,21.81975 L43.2393134,16.339125 L51.1064384,16.339125 L51.1064384,11.982375 L38.8964384,11.982375 Z M54.2375616,11.982375 L54.2375616,36 L58.5804366,36 L58.5804366,18.725625 L64.0610616,26.023875 L64.0610616,26.162625 L64.1651061,26.162625 L64.2275616,26.245875 L64.3385616,26.162625 L68.1403116,26.162625 L68.2513116,26.245875 L68.3137672,26.162625 L68.4178116,26.162625 L68.4178116,26.023875 L73.8984366,18.725625 L73.8984366,36 L78.2551866,36 L78.2551866,11.982375 L73.8984366,11.982375 L73.8984366,12.1142056 L66.2394366,21.694875 L58.5804366,12.1176472 L58.5804366,11.982375 L54.2375616,11.982375 Z" id="MEM" fill="#18252D"></path>
        </g>
    </g>
</svg>