<svg width="95" height="50" viewBox="0 0 95 50" xmlns="http://www.w3.org/2000/svg"><title>nola</title><g fill="none" fill-rule="evenodd"><path fill="#FFF" fill-rule="nonzero" d="M6 4L0 50l87-3 8-47z"/><path d="M13.019 15.156l-.09.072H9.404V36h3.768V21.06l4.74 6.312v.12h.09l.054.072.096-.072h1.464V36h3.756V15.228h-3.756V23.4l-6.444-8.055v-.117h-.096l-.057-.072zm24.917 3.84a6.624 6.624 0 1 0 0 13.248 6.624 6.624 0 1 0 0-13.248zm0-3.756c5.737 0 10.38 4.643 10.38 10.38 0 5.737-4.643 10.38-10.38 10.38-5.737 0-10.392-4.643-10.392-10.38 0-5.737 4.655-10.38 10.392-10.38zm14.628-.012V36H64.84v-3.756h-8.508V15.228h-3.768zm22.969 5.906l-2.019 6.06h4.041l-2.022-6.06zm-1.815-5.904l.144.048h3.336l.144-.048.018.048h.048v.141l6.753 20.271h.051v.15l.048.147-.048.015v.048h-.147l-.147.048-.015-.048h-3.237l-.144.048-.015-.048h-.051v-.153l-1.65-4.947h-6.543l-1.647 4.938v.162h-.051l-.015.048-.144-.048H67.16l-.018.048-.144-.048h-.15v-.051l-.048-.015.048-.153v-.141h.048l6.756-20.262v-.15h.051l.015-.048z" fill="#000"/></g></svg>