<?xml version="1.0" encoding="UTF-8" standalone="no"?>
<svg width="72px" height="45px" viewBox="0 0 72 45" version="1.1" xmlns="http://www.w3.org/2000/svg" xmlns:xlink="http://www.w3.org/1999/xlink">
    <!-- Generator: Sketch 42 (36781) - http://www.bohemiancoding.com/sketch -->
    <title>Slice 1</title>
    <desc>Created with Sketch.</desc>
    <defs></defs>
    <g id="Page-1" stroke="none" stroke-width="1" fill="none" fill-rule="evenodd">
        <g id="nyc">
            <polygon id="Path-6" fill="#FFFFFF" fill-rule="nonzero" points="7 0 0.874000572 45 72 41 69 2"></polygon>
            <path d="M18.0970082,12.156 L18.0069925,12.228 L14.4820003,12.228 L14.4820003,33 L18.2500003,33 L18.2500003,18.06 L22.9900003,24.372 L22.9900003,24.492 L23.080016,24.492 L23.1340003,24.564 L23.2300003,24.492 L24.6940003,24.492 L24.6940003,33 L28.4500003,33 L28.4500003,12.228 L24.6940003,12.228 L24.6940003,20.4 L18.2500003,12.3449922 L18.2500003,12.228 L18.1540003,12.228 L18.0970082,12.156 Z M30.8820007,12.228 L30.8820007,12.588 L30.9509929,12.588 L35.9820007,22.6590078 L35.9820007,33 L39.7380007,33 L39.7380007,22.6649922 L44.7719851,12.588 L44.8380007,12.588 L44.8380007,12.228 L41.0820007,12.228 L41.0820007,12.3689922 L40.7130085,13.1070078 L37.8660007,18.8070078 L34.6380007,12.3630078 L34.6380007,12.228 L30.8820007,12.228 Z M56.9820011,12.228 L56.9820011,12.2310078 C51.3281134,12.3276484 46.7700011,16.943168 46.7700011,22.62 C46.7700011,28.2851201 51.3281134,32.9003437 56.9820011,32.997 L56.9820011,33 L60.7380011,33 L60.7380011,29.244 L57.1620011,29.244 C53.5034093,29.244 50.5380011,26.2785918 50.5380011,22.62 C50.5380011,18.9614082 53.5034093,15.996 57.1620011,15.996 L60.7380011,15.996 L60.7380011,12.228 L56.9820011,12.228 Z" id="NYC" fill="#000000"></path>
        </g>
    </g>
</svg>