<svg width="138" height="46" viewBox="0 0 138 46" xmlns="http://www.w3.org/2000/svg"><title>paname</title><g fill="none" fill-rule="evenodd"><path fill="#FFF" fill-rule="nonzero" d="M0 4l4.346 38 126.048 4L138 0z"/><path d="M13.136 13.24H20.3v.006a6.978 6.978 0 0 1 6.804 6.978c0 3.793-3.034 6.882-6.804 6.978v.006h-3.396V34h-3.768V13.24zm3.768 3.756v6.444h3.216a3.223 3.223 0 0 0 0-6.444h-3.216zm18.997 2.138l-2.019 6.06h4.041l-2.022-6.06zm-1.671-5.856h3.336l.144-.048.066.048v.141l6.753 20.271.051.15.048.147-.048.063h-.147l-.147.048-3.252-.048-.144.048-.066-.048v-.153l-1.65-4.947h-6.543l-1.647 4.938v.162l-.066.048-.144-.048h-3.558l-.048-.066.048-.153v-.141l6.804-20.262v-.15h.21zm17.713-.122l-.09.072h-3.525V34h3.768V19.06l4.74 6.312v.12h.09l.054.072.096-.072h1.464V34h3.756V13.228H58.54V21.4l-6.444-8.055v-.117H52l-.057-.072zm22.726 5.978l-2.019 6.06h4.041l-2.022-6.06zm-1.815-5.904l.144.048h3.336l.144-.048.018.048h.048v.141l6.753 20.271h.051v.15l.048.147-.048.015v.048h-.147l-.147.048-.015-.048h-3.237l-.144.048-.015-.048h-.051v-.153l-1.65-4.947h-6.543l-1.647 4.938v.162h-.051l-.015.048-.144-.048h-3.246l-.018.048-.144-.048h-.15v-.051l-.048-.015.048-.153v-.141h.048l6.756-20.262v-.15h.051l.015-.048zm14.242-.002V34h3.756V19.06l4.74 6.312v.12h.09l.054.072.096-.072h3.288l.096.072.054-.072h.09v-.12l4.74-6.312V34h3.768V13.228H104.1v.114l-6.624 8.286-6.624-8.283v-.117h-3.756zm25.024 0V34h10.56v-3.756h-6.804v-4.74h5.1v-3.768h-5.1v-4.74h6.804v-3.768h-10.56z" fill="#000"/></g></svg>