<svg width="63" height="49" viewBox="0 0 63 49" xmlns="http://www.w3.org/2000/svg"><title>placeofinterrests</title><g fill="none" fill-rule="evenodd"><path fill="#FFF" d="M0 0l3.898 44.2L56.551 49 63 3.4z"/><path d="M47.767 37.778H49V39H12v-1.222h1.233v-6.111h3.7V19.444h7.4v6.112h1.234V13.333H26.8V10.89h2.467V9.667H30.5V6h1.233v3.667h1.234v1.222h2.466v2.444h1.234v13.445H37.9v-4.89h7.4v12.223h2.467v3.667zm-7.4-12.222v1.222h2.466v-1.222h-2.466zm0 3.666v1.222h2.466v-1.222h-2.466zm0 3.667v1.222h2.466V32.89h-2.466zm-7.4-11h-3.7v1.222h3.7V21.89zm-3.7-3.667h3.7V17h-3.7v1.222zm3.7 8.556h-3.7V28h3.7v-1.222zm0 4.889h-3.7v1.222h3.7v-1.222zM19.4 23.11v1.222h2.467v-1.222H19.4zm0 4.889v1.222h2.467V28H19.4zm0 4.889v1.222h2.467V32.89H19.4z" fill="#18252D" fill-rule="nonzero"/></g></svg>