<svg width="116" height="56" viewBox="0 0 116 56" xmlns="http://www.w3.org/2000/svg"><title>Chicago</title><g fill="none" fill-rule="evenodd"><path fill="#FFF" d="M6.906 3L0 52l116 4L109.972.698z"/><path d="M20.551 21.228v.003c-5.653.097-10.212 4.712-10.212 10.389 0 5.665 4.559 10.28 10.212 10.377V42h3.756v-3.756h-3.576a6.624 6.624 0 1 1 0-13.248h3.576v-3.768h-3.756zm6.483 0V42h3.756v-8.496h6.444V42h3.768V21.228h-3.768v8.508H30.79v-8.508h-3.756zm16.983-.02v20.76h3.768v-20.76h-3.768zm6.775.032h7.164v.006a6.98 6.98 0 0 1 6.804 6.978 6.988 6.988 0 0 1-3.708 6.168l.198.393.084.162 3.36 6.693h.066V42h-3.768v-.138l-3.327-6.654h-3.117V42h-3.756V21.24zm3.756 3.756v6.444h3.228a3.218 3.218 0 0 0 3.216-3.216 3.22 3.22 0 0 0-3.216-3.228h-3.228zm20.008 2.138l-2.02 6.06h4.042l-2.022-6.06zM72.74 21.23l.144.048h3.336l.144-.048.018.048h.048v.141l6.753 20.271h.05v.15l.049.147-.048.015v.048h-.147l-.147.048-.015-.048h-3.237l-.144.048-.015-.048h-.051v-.153l-1.65-4.947h-6.543l-1.647 4.938v.162h-.051l-.015.048-.144-.048h-3.246l-.018.048-.144-.048h-.15v-.051l-.048-.015.048-.153v-.141h.048l6.756-20.262v-.15h.05l.016-.048zm20.565 3.766a6.624 6.624 0 1 0 2.799 12.627l-1.206-2.415h-.07v-.138l-.06-.123.06-.03v-.069h.136l.126-.063.033.063h3.234l.126-.063.033.063h.069v.135l.189.375a6.624 6.624 0 0 0-5.469-10.362zm0-3.756c5.737 0 10.392 4.643 10.392 10.38 0 2.892-1.185 5.505-3.093 7.386l1.323 2.634h.066v.132l.06.126-.06.03V42h-.141l-.12.06-.03-.06h-3.258l-.12.06-.03-.06h-.07v-.138l-.437-.873A10.37 10.37 0 0 1 93.306 42a10.374 10.374 0 0 1-10.38-10.38c0-5.737 4.643-10.38 10.38-10.38z" fill="#18252D"/></g></svg>