<svg width="131" height="51" viewBox="0 0 131 51" xmlns="http://www.w3.org/2000/svg"><title>London</title><g fill="none" fill-rule="evenodd"><path fill="#FFF" d="M0 51L8.638 0H125l6 45z"/><path d="M14.28 15.228V36h12.276v-3.756h-8.508V15.228H14.28zm23.5 3.768a6.624 6.624 0 1 0 0 13.248 6.624 6.624 0 1 0 0-13.248zm0-3.756c5.737 0 10.38 4.643 10.38 10.38 0 5.737-4.643 10.38-10.38 10.38-5.737 0-10.392-4.643-10.392-10.38 0-5.737 4.655-10.38 10.392-10.38zm16.283-.084l-.09.072h-3.525V36h3.768V21.06l4.74 6.312v.12h.09l.054.072.096-.072h1.464V36h3.756V15.228H60.66V23.4l-6.444-8.055v-.117h-.096l-.057-.072zm17.133 3.846v13.239a6.622 6.622 0 1 0 0-13.239zm-3.768-3.774h3.768v.003c5.643.097 10.2 4.712 10.2 10.389 0 5.665-4.557 10.28-10.2 10.377V36h-3.768V15.228zm25.868 3.768a6.624 6.624 0 1 0 0 13.248 6.624 6.624 0 1 0 0-13.248zm0-3.756c5.737 0 10.38 4.643 10.38 10.38 0 5.737-4.643 10.38-10.38 10.38-5.737 0-10.392-4.643-10.392-10.38 0-5.737 4.655-10.38 10.392-10.38zm16.283-.084l-.09.072h-3.525V36h3.768V21.06l4.74 6.312v.12h.09l.054.072.096-.072h1.464V36h3.756V15.228h-3.756V23.4l-6.444-8.055v-.117h-.096l-.057-.072z" fill="#18252D"/></g></svg>