<svg width="92" height="47" viewBox="0 0 92 47" xmlns="http://www.w3.org/2000/svg"><title>Memphis</title><g fill="none" fill-rule="evenodd"><path fill="#FFF" d="M3 5L0 47l92-4-7-43z"/><path d="M11.42 11.982V36h4.342V18.726l5.48 7.298v.139h.105l.062.083.111-.083h3.802l.111.083.063-.083h.104v-.14l5.48-7.297V36h4.357V11.982H31.08v.132l-7.659 9.58-7.659-9.576v-.136H11.42zm27.476 0V36h12.21v-4.343H43.24v-5.48h5.897V21.82H43.24v-5.48h7.867v-4.358h-12.21zm15.342 0V36h4.342V18.726l5.481 7.298v.139h.104l.063.083.11-.083h3.802l.111.083.063-.083h.104v-.14l5.48-7.297V36h4.357V11.982h-4.357v.132l-7.659 9.58-7.659-9.576v-.136h-4.342z" fill="#18252D"/></g></svg>