<svg width="170" height="46" viewBox="0 0 170 46" xmlns="http://www.w3.org/2000/svg"><title>motown 2</title><g fill="none"><path fill="#FFF" d="M8 0L0 46l163-1 7-43z"/><path d="M18.184 12.228h3.756v.117l6.624 8.283 6.624-8.286v-.114h3.768V33h-3.768V18.06l-4.74 6.312v.12h-.09l-.054.072-.096-.072H26.92l-.096.072-.054-.072h-.09v-.12l-4.74-6.312V33h-3.756V12.228zM55.3 15.996a6.624 6.624 0 1 0 0 13.248 6.624 6.624 0 1 0 0-13.248zm0-3.756c5.737 0 10.38 4.643 10.38 10.38C65.68 28.357 61.037 33 55.3 33c-5.737 0-10.392-4.643-10.392-10.38 0-5.737 4.655-10.38 10.392-10.38zm15.372-.036H84.64v3.768h-5.112v17.004h-3.756V15.972h-5.1v-3.768zm29.532 3.792a6.624 6.624 0 1 0 0 13.248 6.624 6.624 0 1 0 0-13.248zm0-3.756c5.737 0 10.38 4.643 10.38 10.38 0 5.737-4.643 10.38-10.38 10.38-5.737 0-10.392-4.643-10.392-10.38 0-5.737 4.655-10.38 10.392-10.38zm15.49-.096l.015.048h3.249l.144-.048.018.048h.048v.141l4.92 14.76 1.515-4.521-3.348-10.02h-.051v-.15l-.048-.144.048-.015v-.051h.15l.144-.048.015.048h3.249l.144-.048.015.048h.051v.15l1.512 4.56 1.524-4.569v-.141h.048l.018-.048.144.048h3.249l.015-.048.144.048h.15v.051l.048.015-.048.138v.156h-.054l-3.342 10.02 1.512 4.53 4.92-14.76v-.15h.051l.015-.048.144.048h3.249l.015-.048.144.048h.15v.051l.048.015-.048.144v.15h-.051l-6.753 20.241v.159h-.051l-.015.048-.144-.048h-3.348l-.144.048-.018-.048h-.048v-.141l-1.524-4.569-1.512 4.56v.15h-.051l-.015.048-.144-.048h-3.348l-.144.048-.015-.048h-.051v-.15l-6.75-20.25h-.054v-.156l-.048-.138.048-.015v-.051h.15l.144-.048zm33.293.012l.057.072h.096v.117l6.444 8.055v-8.172h3.756V33h-3.756v-8.508h-1.464l-.096.072-.054-.072h-.09v-.12l-4.74-6.312V33h-3.768V12.228h3.525l.09-.072z" fill="#18252D"/></g></svg>