<svg width="72" height="45" viewBox="0 0 72 45" xmlns="http://www.w3.org/2000/svg"><title>Slice 1</title><g fill="none" fill-rule="evenodd"><path fill="#FFF" fill-rule="nonzero" d="M7 0L.874 45 72 41 69 2z"/><path d="M18.097 12.156l-.09.072h-3.525V33h3.768V18.06l4.74 6.312v.12h.09l.054.072.096-.072h1.464V33h3.756V12.228h-3.756V20.4l-6.444-8.055v-.117h-.096l-.057-.072zm12.785.072v.36h.069l5.031 10.071V33h3.756V22.665l5.034-10.077h.066v-.36h-3.756v.141l-.369.738-2.847 5.7-3.228-6.444v-.135h-3.756zm26.1 0v.003c-5.654.097-10.212 4.712-10.212 10.389 0 5.665 4.558 10.28 10.212 10.377V33h3.756v-3.756h-3.576a6.624 6.624 0 1 1 0-13.248h3.576v-3.768h-3.756z" fill="#000"/></g></svg>