<svg version="1" xmlns="http://www.w3.org/2000/svg" width="21.333" height="21.333" viewBox="0 0 16.000000 16.000000"><path d="M7.976 3.995c-4.383.338-7.97.616-7.972.618-.004.003 1.224 7.375 1.23 7.381.003.003 1.57.077 2.542.12l1.37.062 1.482.067 1.592.073 1.8.081 1.582.072c.452.022 1.167.053 1.587.073 1.012.045 1.36.06 1.484.068a.702.702 0 0 0 .103.003l.043-.322.078-.577.245-1.842.144-1.082.144-1.082.145-1.083.144-1.082.245-1.842.04-.292c.006-.03.005-.03-.026-.03l-8.002.616zM5.887 6.392c0 .028.833 2.507.838 2.497.004-.007.063-.177.13-.378l.123-.365-.098-.29-.284-.836c-.103-.302-.19-.567-.193-.59l-.006-.04.308-.002c.17 0 .314-.001.32-.002.006-.001.013.007.015.018.004.02.241.745.25.76.003.004.008.001.012-.006.01-.017.247-.729.252-.752.003-.016.024-.017.317-.02.172 0 .317.002.32.006.004.003-.124.399-.284.88l-.29.873.122.37c.068.205.126.374.13.379.006.006.837-2.472.837-2.497 0-.01.066-.012.31-.012.171 0 .315.003.322.008.008.004-.16.522-.572 1.76l-.584 1.753-.313-.002c-.29-.002-.312-.004-.315-.02-.004-.019-.252-.765-.257-.77-.003-.004-.252.744-.257.77-.003.016-.025.018-.316.02l-.312.002-.098-.294-.47-1.4a991.03 991.03 0 0 1-.48-1.43c-.061-.18-.111-.34-.113-.357l-.003-.03.312-.005c.173-.003.316-.006.32-.008.005-.001.007.004.007.01zm-1.984.022c.41.066.753.338.909.72.1.247.112.563.027.816-.035.102-.083.2-.147.296-.067.1-.224.252-.33.322l-.088.056.105.208c.308.605.518 1.032.518 1.054v.025h-.318c-.295 0-.317-.001-.318-.018 0-.008-.126-.267-.281-.574l-.281-.558-.262-.003-.262-.002V9.911H2.54V6.399h.637c.518 0 .654.003.726.015zm6.61.005c.012.02 1.08 1.357 1.103 1.383.01.01.12-.122.567-.681.306-.382.558-.7.56-.708.004-.012.06-.014.322-.014h.316v3.512h-.635l-.001-1.26-.003-1.262-.397.528c-.218.29-.397.533-.397.539 0 .007-.004.012-.01.012h-.614l-.407-.541-.407-.54-.003 1.261-.002 1.263H9.87V6.399h.316c.308 0 .314 0 .327.02z"/><path d="M3.175 7.579v.543l.33-.003c.326-.004.33-.004.392-.028a.801.801 0 0 0 .107-.05.62.62 0 0 0 .235-.3.553.553 0 0 0-.28-.65c-.096-.05-.151-.057-.483-.057h-.301v.545z"/></svg>