<?xml version="1.0" standalone="no"?>
<!DOCTYPE svg PUBLIC "-//W3C//DTD SVG 20010904//EN"
 "http://www.w3.org/TR/2001/REC-SVG-20010904/DTD/svg10.dtd">
<svg version="1.0" xmlns="http://www.w3.org/2000/svg"
 width="16.000000pt" height="16.000000pt" viewBox="0 0 16.000000 16.000000"
 preserveAspectRatio="xMidYMid meet">
<metadata>
Created by potrace 1.11, written by Peter Selinger 2001-2013
</metadata>
<g transform="translate(0.000000,16.000000) scale(0.000962,-0.000962)"
fill="#000000" stroke="none">
<path d="M8291 12479 c-4556 -351 -8285 -640 -8287 -642 -4 -3 1273 -7667
1278 -7673 4 -3 1632 -80 2643 -124 253 -11 894 -40 1425 -65 531 -24 1224
-56 1540 -70 316 -14 1061 -48 1655 -75 594 -28 1436 -66 1870 -85 435 -19
1175 -53 1645 -75 470 -22 1213 -55 1650 -75 1052 -47 1413 -63 1543 -71 59
-4 107 -5 107 -3 0 2 20 153 44 334 25 182 61 452 81 600 34 256 62 471 255
1915 44 333 112 839 150 1125 38 286 106 792 150 1125 44 333 112 839 150
1125 38 286 106 792 150 1125 185 1384 221 1658 255 1915 20 149 38 285 41
303 6 31 5 32 -27 31 -19 -1 -3762 -289 -8318 -640z m-2171 -2491 c0 -30 865
-2607 871 -2596 4 7 65 184 135 393 l128 379 -102 301 c-56 165 -189 557 -295
870 -107 314 -197 589 -201 613 l-6 42 320 2 c176 0 326 1 332 2 7 1 14 -8 16
-19 4 -21 251 -774 260 -789 3 -5 8 -2 12 5 10 18 257 758 262 782 3 17 25 18
330 20 179 1 329 -1 333 -5 4 -4 -129 -415 -296 -915 l-302 -908 128 -385 c70
-212 131 -388 135 -393 6 -7 870 2569 870 2595 0 10 68 13 323 13 177 0 327
-3 334 -8 8 -5 -167 -543 -595 -1830 l-607 -1822 -325 2 c-302 2 -325 4 -328
20 -4 20 -262 796 -267 801 -3 4 -262 -773 -267 -801 -3 -16 -26 -18 -328 -20
l-325 -2 -102 305 c-55 168 -275 823 -488 1455 -213 633 -438 1302 -500 1488
-63 186 -115 353 -117 370 l-3 32 325 5 c179 3 328 6 333 8 4 1 7 -4 7 -10z
m-2063 -23 c427 -69 783 -352 945 -749 105 -257 116 -585 28 -848 -36 -106
-86 -208 -153 -308 -69 -103 -232 -262 -343 -334 l-91 -59 109 -216 c320 -629
538 -1073 538 -1096 l0 -25 -330 0 c-307 0 -330 1 -331 18 0 9 -131 278 -292
597 l-292 580 -272 3 -273 2 0 -600 0 -600 -330 0 -330 0 0 1825 0 1825 663 0
c538 0 679 -3 754 -15z m6871 -6 c13 -20 1122 -1410 1147 -1437 10 -11 124
127 589 708 318 397 580 728 583 736 4 12 61 14 334 14 l329 0 0 -1825 0
-1825 -330 0 -330 0 -2 1310 -3 1311 -412 -549 c-227 -302 -413 -554 -413
-560 0 -7 -4 -12 -10 -12 -5 0 -152 -1 -325 -1 l-314 0 -423 563 -423 562 -3
-1312 -2 -1312 -330 0 -330 0 0 1825 0 1825 328 0 c321 0 327 0 340 -21z"/>
<path d="M3300 8754 l0 -565 343 3 c339 4 343 4 408 29 37 14 86 37 111 52 97
56 211 203 244 312 79 265 -42 549 -290 676 -100 52 -158 59 -503 59 l-313 0
0 -566z"/>
</g>
</svg>
