<svg width="25" height="25" viewBox="0 0 25 25" xmlns="http://www.w3.org/2000/svg"><title>Slice 1</title><path d="M24.54 20.565c-.33-1.025-.928-2.06-1.81-2.662-1.698-1.166-3.676-1.789-5.589-2.455-.461-.168-.93-.35-1.352-.61-.376-.231-.517-.706-.605-1.123a5.739 5.739 0 0 1-.074-.67c1.387-1.965 2.307-5.17 2.307-7.8 0-4.102-2.24-5.245-5-5.245-2.762 0-5 1.142-5 5.244 0 2.723.986 6.063 2.456 8.003a5.398 5.398 0 0 1-.057.459c-.088.417-.23.883-.605 1.115-.423.26-.891.424-1.353.592-1.912.666-3.89 1.253-5.588 2.42-.883.602-1.48 1.707-1.81 2.732-.34 1.064-.479 2.382-.458 3.45H24.998c.021-1.068-.118-2.386-.458-3.45z" fill="#F06" fill-rule="evenodd"/></svg>