<svg width="58" height="38" viewBox="0 0 58 38" xmlns="http://www.w3.org/2000/svg"><title>Slice 1</title><g fill-rule="nonzero" fill="none"><path fill="#FFF" d="M0 1l2 35 53 2 3-38z"/><path d="M39.999 16.368c0-5.703-4.656-10.37-10.359-10.37s-10.37 4.667-10.37 10.37c0 2.193.703 4.223 1.87 5.898l-5.596 5.606a1.82 1.82 0 0 0 0 2.592 1.825 1.825 0 0 0 2.582 0l5.606-5.606a10.271 10.271 0 0 0 5.908 1.869c5.703 0 10.359-4.667 10.359-10.359zm-3.651 0a6.677 6.677 0 0 1-6.708 6.697 6.677 6.677 0 0 1-6.708-6.697A6.68 6.68 0 0 1 29.64 9.66a6.68 6.68 0 0 1 6.708 6.708z" fill="#18252D"/></g></svg>